<mxfile host="app.diagrams.net" modified="2023-12-02T18:19:41.341Z" agent="Mozilla/5.0 (X11; Ubuntu; Linux x86_64; rv:109.0) Gecko/20100101 Firefox/117.0" etag="ri7_zkaDrMIrLajh9yRc" version="22.1.5" type="github">
  <diagram name="Page-1" id="ylsyOOFdUWlXaX4V--iw">
    <mxGraphModel dx="1362" dy="886" grid="1" gridSize="10" guides="1" tooltips="1" connect="1" arrows="1" fold="1" page="1" pageScale="1" pageWidth="850" pageHeight="1100" math="0" shadow="0">
      <root>
        <mxCell id="0" />
        <mxCell id="1" parent="0" />
        <mxCell id="mFsJni9q_cK6NArOYZxN-5" value="" style="edgeStyle=orthogonalEdgeStyle;rounded=0;orthogonalLoop=1;jettySize=auto;html=1;" edge="1" parent="1" source="mFsJni9q_cK6NArOYZxN-1" target="mFsJni9q_cK6NArOYZxN-2">
          <mxGeometry relative="1" as="geometry" />
        </mxCell>
        <mxCell id="mFsJni9q_cK6NArOYZxN-9" value="" style="edgeStyle=orthogonalEdgeStyle;rounded=0;orthogonalLoop=1;jettySize=auto;html=1;" edge="1" parent="1" source="mFsJni9q_cK6NArOYZxN-1" target="mFsJni9q_cK6NArOYZxN-7">
          <mxGeometry relative="1" as="geometry" />
        </mxCell>
        <mxCell id="mFsJni9q_cK6NArOYZxN-1" value="&lt;div&gt;UI (SocketIO client)&lt;br&gt;&lt;/div&gt;&lt;div&gt;Flutter&lt;br&gt;&lt;/div&gt;" style="rounded=1;whiteSpace=wrap;html=1;" vertex="1" parent="1">
          <mxGeometry x="160" y="260" width="120" height="60" as="geometry" />
        </mxCell>
        <mxCell id="mFsJni9q_cK6NArOYZxN-4" value="" style="edgeStyle=orthogonalEdgeStyle;rounded=0;orthogonalLoop=1;jettySize=auto;html=1;" edge="1" parent="1" source="mFsJni9q_cK6NArOYZxN-2" target="mFsJni9q_cK6NArOYZxN-1">
          <mxGeometry relative="1" as="geometry" />
        </mxCell>
        <mxCell id="mFsJni9q_cK6NArOYZxN-2" value="Actor" style="shape=umlActor;verticalLabelPosition=bottom;verticalAlign=top;html=1;outlineConnect=0;" vertex="1" parent="1">
          <mxGeometry x="90" y="260" width="30" height="60" as="geometry" />
        </mxCell>
        <mxCell id="mFsJni9q_cK6NArOYZxN-8" value="" style="edgeStyle=orthogonalEdgeStyle;rounded=0;orthogonalLoop=1;jettySize=auto;html=1;" edge="1" parent="1" source="mFsJni9q_cK6NArOYZxN-7" target="mFsJni9q_cK6NArOYZxN-1">
          <mxGeometry relative="1" as="geometry" />
        </mxCell>
        <mxCell id="mFsJni9q_cK6NArOYZxN-12" value="" style="edgeStyle=orthogonalEdgeStyle;rounded=0;orthogonalLoop=1;jettySize=auto;html=1;" edge="1" parent="1" source="mFsJni9q_cK6NArOYZxN-7" target="mFsJni9q_cK6NArOYZxN-10">
          <mxGeometry relative="1" as="geometry" />
        </mxCell>
        <mxCell id="mFsJni9q_cK6NArOYZxN-7" value="&lt;div&gt;Server (SocketIO server)&lt;br&gt;&lt;/div&gt;&lt;div&gt;python&lt;/div&gt;" style="rounded=1;whiteSpace=wrap;html=1;" vertex="1" parent="1">
          <mxGeometry x="360" y="260" width="120" height="60" as="geometry" />
        </mxCell>
        <mxCell id="mFsJni9q_cK6NArOYZxN-14" style="edgeStyle=orthogonalEdgeStyle;rounded=0;orthogonalLoop=1;jettySize=auto;html=1;" edge="1" parent="1" source="mFsJni9q_cK6NArOYZxN-10" target="mFsJni9q_cK6NArOYZxN-7">
          <mxGeometry relative="1" as="geometry" />
        </mxCell>
        <mxCell id="mFsJni9q_cK6NArOYZxN-10" value="&lt;div&gt;Timer service (timer app i SocketIO client)&lt;/div&gt;" style="rounded=1;whiteSpace=wrap;html=1;" vertex="1" parent="1">
          <mxGeometry x="560" y="260" width="120" height="60" as="geometry" />
        </mxCell>
        <mxCell id="mFsJni9q_cK6NArOYZxN-24" value="&lt;h1&gt;Uruchomienie strony&lt;/h1&gt;&lt;div&gt;Napis 10 second countdown timer&lt;br&gt;&lt;/div&gt;&lt;p&gt;Przyciski start/stop&lt;/p&gt;&lt;p&gt;Timer z initowym stanem - 00:10&lt;/p&gt;&lt;p style=&quot;font-size: 24px;&quot;&gt;&lt;b&gt;Klikniecie start&lt;/b&gt;&lt;/p&gt;&lt;p style=&quot;&quot;&gt;&lt;font style=&quot;font-size: 18px;&quot;&gt;Rozpoczęcie odliczania&lt;/font&gt;&lt;/p&gt;&lt;p style=&quot;&quot;&gt;&lt;font style=&quot;font-size: 12px;&quot;&gt;Podłączenie do socketa na namespace timer&lt;br&gt;&lt;/font&gt;&lt;/p&gt;&lt;p style=&quot;&quot;&gt;&lt;font style=&quot;font-size: 12px;&quot;&gt;Rozpoczecie nasłuchiwania event state int&lt;br&gt;&lt;/font&gt;&lt;/p&gt;&lt;p style=&quot;&quot;&gt;&lt;font style=&quot;font-size: 12px;&quot;&gt;Zablokowanie przypcisku start&lt;/font&gt;&lt;/p&gt;&lt;p style=&quot;font-size: 24px;&quot;&gt;&lt;b&gt;Klikniecie stop&lt;br&gt;&lt;/b&gt;&lt;/p&gt;&lt;p style=&quot;&quot;&gt;Rozłączenie z socketem&lt;/p&gt;&lt;p style=&quot;&quot;&gt;Wyświetlenie ostatniej otrzymanej wiadomosci z socketa&lt;/p&gt;&lt;p style=&quot;&quot;&gt;Włączenie guzika start&lt;br&gt;&lt;/p&gt;&lt;p style=&quot;font-size: 24px;&quot;&gt;&lt;b&gt;Zamkniecie strony&lt;br&gt;&lt;/b&gt;&lt;/p&gt;" style="text;html=1;strokeColor=none;fillColor=none;spacing=5;spacingTop=-20;whiteSpace=wrap;overflow=hidden;rounded=0;" vertex="1" parent="1">
          <mxGeometry x="40" y="400" width="270" height="540" as="geometry" />
        </mxCell>
        <mxCell id="mFsJni9q_cK6NArOYZxN-25" value="&lt;h1&gt;Uruchomienie serwera &lt;br&gt;&lt;/h1&gt;&lt;div&gt;Uruchomienie socketa &lt;br&gt;&lt;/div&gt;&lt;div&gt;Otwarcie namespace timer w sockecie&lt;/div&gt;&lt;div&gt;Nasłuchiwanie podłączeń i rożłączen do namespace timera&lt;br&gt;&lt;/div&gt;&lt;div&gt;&lt;br&gt;&lt;/div&gt;&lt;p style=&quot;font-size: 24px;&quot;&gt;&lt;b&gt;Podłaczenie do namespace timer&lt;/b&gt;&lt;/p&gt;&lt;p style=&quot;&quot;&gt;&lt;font style=&quot;font-size: 12px;&quot;&gt;Pobranie sid i headerów&lt;/font&gt;&lt;/p&gt;&lt;p style=&quot;&quot;&gt;&lt;font style=&quot;font-size: 12px;&quot;&gt;Jesli w headerze nie jest client:&lt;br&gt;&lt;/font&gt;&lt;/p&gt;&lt;blockquote&gt;&lt;p style=&quot;&quot;&gt;&lt;font style=&quot;font-size: 12px;&quot;&gt;Dodanie sid do room sid&lt;font style=&quot;font-size: 12px;&quot;&gt;&lt;font style=&quot;font-size: 12px;&quot;&gt;&lt;br&gt;&lt;/font&gt;&lt;/font&gt;&lt;/font&gt;&lt;/p&gt;&lt;p style=&quot;&quot;&gt;&lt;font style=&quot;font-size: 12px;&quot;&gt;&lt;font style=&quot;font-size: 12px;&quot;&gt;&lt;font style=&quot;font-size: 12px;&quot;&gt;emit do event control json:&lt;/font&gt;&lt;/font&gt;&lt;/font&gt;&lt;/p&gt;&lt;p style=&quot;&quot;&gt;&lt;font style=&quot;font-size: 12px;&quot;&gt;&lt;font style=&quot;font-size: 12px;&quot;&gt;&lt;font style=&quot;font-size: 12px;&quot;&gt;{&lt;/font&gt;&lt;/font&gt;&lt;/font&gt;&lt;/p&gt;&lt;p style=&quot;&quot;&gt;&lt;font style=&quot;font-size: 12px;&quot;&gt;&lt;font style=&quot;font-size: 12px;&quot;&gt;&lt;font style=&quot;font-size: 12px;&quot;&gt;command: str - start&lt;/font&gt;&lt;/font&gt;&lt;/font&gt;&lt;/p&gt;&lt;p style=&quot;&quot;&gt;&lt;font style=&quot;font-size: 12px;&quot;&gt;&lt;font style=&quot;font-size: 12px;&quot;&gt;&lt;font style=&quot;font-size: 12px;&quot;&gt;roomid: str&lt;br&gt;&lt;/font&gt;&lt;/font&gt;&lt;/font&gt;&lt;/p&gt;&lt;p style=&quot;&quot;&gt;&lt;font style=&quot;font-size: 12px;&quot;&gt;&lt;font style=&quot;font-size: 12px;&quot;&gt;&lt;font style=&quot;font-size: 12px;&quot;&gt;}&lt;br&gt;&lt;/font&gt;&lt;/font&gt;&lt;/font&gt;&lt;/p&gt;&lt;/blockquote&gt;&lt;p style=&quot;&quot;&gt;&lt;b&gt;&lt;font style=&quot;font-size: 24px;&quot;&gt;Rozłączenie z namespace timer&lt;/font&gt;&lt;/b&gt;&lt;/p&gt;&lt;p style=&quot;&quot;&gt;&lt;font style=&quot;font-size: 12px;&quot;&gt;Pobranie sid&lt;/font&gt;&lt;/p&gt;&lt;p style=&quot;&quot;&gt;&lt;font style=&quot;font-size: 12px;&quot;&gt;&lt;font style=&quot;font-size: 12px;&quot;&gt;&lt;font style=&quot;font-size: 12px;&quot;&gt;emit do event control json:&lt;/font&gt;&lt;/font&gt;&lt;/font&gt;&lt;/p&gt;&lt;p style=&quot;&quot;&gt;&lt;font style=&quot;font-size: 12px;&quot;&gt;&lt;font style=&quot;font-size: 12px;&quot;&gt;&lt;font style=&quot;font-size: 12px;&quot;&gt;{&lt;/font&gt;&lt;/font&gt;&lt;/font&gt;&lt;/p&gt;&lt;p style=&quot;&quot;&gt;&lt;font style=&quot;font-size: 12px;&quot;&gt;&lt;font style=&quot;font-size: 12px;&quot;&gt;&lt;font style=&quot;font-size: 12px;&quot;&gt;command: str - stop&lt;/font&gt;&lt;/font&gt;&lt;/font&gt;&lt;/p&gt;&lt;p style=&quot;&quot;&gt;&lt;font style=&quot;font-size: 12px;&quot;&gt;&lt;font style=&quot;font-size: 12px;&quot;&gt;&lt;font style=&quot;font-size: 12px;&quot;&gt;roomid: str&lt;br&gt;&lt;/font&gt;&lt;/font&gt;&lt;/font&gt;&lt;/p&gt;&lt;font style=&quot;font-size: 12px;&quot;&gt;&lt;font style=&quot;font-size: 12px;&quot;&gt;&lt;font style=&quot;font-size: 12px;&quot;&gt;}&lt;/font&gt;&lt;/font&gt;&lt;/font&gt;&lt;p style=&quot;&quot;&gt;&lt;/p&gt;" style="text;html=1;strokeColor=none;fillColor=none;spacing=5;spacingTop=-20;whiteSpace=wrap;overflow=hidden;rounded=0;" vertex="1" parent="1">
          <mxGeometry x="360" y="400" width="270" height="650" as="geometry" />
        </mxCell>
        <mxCell id="mFsJni9q_cK6NArOYZxN-26" value="&lt;h1&gt;Uruchomienie timer service &lt;br&gt;&lt;/h1&gt;&lt;font style=&quot;font-size: 12px;&quot;&gt;Podłączenie do socketa z headerem client = timer_service na namespace timer&lt;br&gt;&lt;/font&gt;&lt;p style=&quot;font-size: 24px;&quot;&gt;&lt;b&gt;Start in control event&lt;/b&gt;&lt;br&gt;&lt;/p&gt;&lt;p style=&quot;&quot;&gt;&lt;font style=&quot;font-size: 12px;&quot;&gt;Stworzenie timera dla danego sid i urcuhomienie timera&lt;br&gt;&lt;/font&gt;&lt;/p&gt;&lt;p style=&quot;&quot;&gt;&lt;font style=&quot;font-size: 12px;&quot;&gt;Cykliczne wysyłanie wiadomości na event state do room z pola roomid&lt;br&gt;&lt;/font&gt;&lt;/p&gt;&lt;p style=&quot;&quot;&gt;&lt;b&gt;&lt;font style=&quot;font-size: 24px;&quot;&gt;Stop in control event&lt;/font&gt;&lt;/b&gt;&lt;/p&gt;Wyczyszczenie timera dla roomid&lt;br&gt;&lt;p style=&quot;&quot;&gt;&lt;/p&gt;" style="text;html=1;strokeColor=none;fillColor=none;spacing=5;spacingTop=-20;whiteSpace=wrap;overflow=hidden;rounded=0;" vertex="1" parent="1">
          <mxGeometry x="680" y="400" width="270" height="330" as="geometry" />
        </mxCell>
      </root>
    </mxGraphModel>
  </diagram>
</mxfile>
